<svg width="150" height="157" viewBox="0 0 150 157" fill="none" xmlns="http://www.w3.org/2000/svg">
<g clip-path="url(#clip0)">
<path d="M102.032 97.2644C183.82 148.95 157.239 168.21 51.0162 150.669C23.2618 146.085 -7.62939e-06 126.759 -7.62939e-06 97.2644C-7.62939e-06 67.77 22.8407 43.86 51.0162 43.86C79.1917 43.86 76.0784 80.8626 102.032 97.2644Z" fill="#3F3D56"/>
<path opacity="0.1" d="M109.345 147.617C127.189 147.617 141.655 146.395 141.655 144.887C141.655 143.379 127.189 142.156 109.345 142.156C91.5003 142.156 77.0345 143.379 77.0345 144.887C77.0345 146.395 91.5003 147.617 109.345 147.617Z" fill="black"/>
<path opacity="0.1" d="M45.6217 57.6171C55.0798 57.6171 62.747 56.3946 62.747 54.8866C62.747 53.3786 55.0798 52.1562 45.6217 52.1562C36.1637 52.1562 28.4964 53.3786 28.4964 54.8866C28.4964 56.3946 36.1637 57.6171 45.6217 57.6171Z" fill="black"/>
<path opacity="0.1" d="M44.7242 61.6082C37.3763 61.6069 30.1778 63.5688 23.9604 67.2675C17.7429 70.9662 12.7602 76.2507 9.58765 82.5106C13.2345 78.7054 17.6859 75.6652 22.6545 73.5864C27.623 71.5075 32.998 70.4363 38.4322 70.442C59.939 70.442 77.3746 86.9098 77.3746 107.223C77.3834 112.718 76.0826 118.145 73.5688 123.101C80.0792 116.341 83.6806 107.527 83.6666 98.389C83.6666 78.076 66.231 61.6082 44.7242 61.6082Z" fill="black"/>
<path opacity="0.3" d="M77.3746 107.062C77.3834 112.558 76.0826 117.984 73.5688 122.94C69.922 126.746 65.4705 129.786 60.502 131.865C55.5335 133.944 50.1584 135.015 44.7242 135.009C23.2175 135.009 5.78184 118.541 5.78184 98.2284C5.77305 92.7329 7.0738 87.3061 9.58765 82.35C13.2345 78.5448 17.6859 75.5046 22.6545 73.4257C27.623 71.3469 32.998 70.2757 38.4322 70.2814C59.939 70.2814 77.3746 86.7492 77.3746 107.062Z" fill="#27D3A8"/>
<path d="M44.7243 135.19C23.1458 135.19 5.59046 118.609 5.59046 98.2284C5.57478 92.7052 6.8823 87.2502 9.41511 82.2719C12.6032 75.9813 17.6105 70.6708 23.8585 66.954C30.1064 63.2371 37.3402 61.2655 44.7243 61.2669C66.3027 61.2669 83.858 77.8478 83.858 98.2284C83.8583 103.082 82.8463 107.889 80.8798 112.373C78.9132 116.858 76.0307 120.933 72.3967 124.365C68.7628 127.797 64.4486 130.52 59.7005 132.377C54.9524 134.234 49.8635 135.19 44.7243 135.19ZM44.7243 61.6283C29.8972 61.6283 16.1729 69.7927 9.76024 82.4282C7.25222 87.3577 5.95754 92.7593 5.97315 98.2284C5.97315 118.41 23.3568 134.828 44.7243 134.828C49.8132 134.829 54.8524 133.882 59.5541 132.043C64.2557 130.204 68.5277 127.508 72.1262 124.109C75.7246 120.711 78.579 116.676 80.5263 112.235C82.4736 107.794 83.4756 103.035 83.4753 98.2284C83.4753 78.047 66.0917 61.6283 44.7243 61.6283V61.6283Z" fill="white"/>
<path d="M133.818 135.657C130.989 139.15 131.313 143.872 131.313 143.872C131.313 143.872 136.222 142.929 139.05 139.436C141.879 135.942 141.555 131.22 141.555 131.22C141.555 131.22 136.646 132.163 133.818 135.657Z" fill="#D0CDE1"/>
<path d="M135.671 136.441C135.122 140.809 131.407 143.982 131.407 143.982C131.407 143.982 128.581 140.075 129.13 135.708C129.679 131.341 133.394 128.167 133.394 128.167C133.394 128.167 136.22 132.074 135.671 136.441Z" fill="#27D3A8"/>
<path d="M33.0696 34.1367C41.9442 34.1367 49.1385 27.3417 49.1385 18.9597C49.1385 10.5777 41.9442 3.78279 33.0696 3.78279C24.195 3.78279 17.0007 10.5777 17.0007 18.9597C17.0007 27.3417 24.195 34.1367 33.0696 34.1367Z" fill="#FF6584"/>
<path d="M67.9083 34.4336C67.9161 49.5934 58.3768 54.8903 46.6072 54.8957C46.3338 54.8958 46.0617 54.8931 45.791 54.8875C45.2455 54.8766 44.7057 54.8534 44.1716 54.8178C33.5488 54.1123 25.2923 48.5518 25.285 34.4532C25.2775 19.8629 45.0114 1.44121 46.4914 0.0791024C46.4927 0.0791024 46.4927 0.0791022 46.494 0.0778643C46.5502 0.0259516 46.579 0 46.579 0C46.579 0 67.9005 19.2751 67.9083 34.4336Z" fill="#27D3A8"/>
<path d="M45.8303 52.5774L53.6196 42.2877L45.8113 53.7066L45.791 54.8876C45.2455 54.8768 44.7057 54.8535 44.1716 54.8179L45.0036 39.6516L44.997 39.5342L45.0113 39.512L45.0904 38.0789L37.2507 26.6388L45.1134 37.0053L45.1332 37.3092L45.7617 25.8504L39.0493 14.0281L45.843 23.8366L46.4914 0.0792762L46.4939 0.000213623L46.494 0.0780381L46.3937 18.8132L53.0648 11.3828L46.3658 20.4266L46.1945 30.6869L52.4248 20.8377L46.1704 32.1953L46.0752 37.9005L55.1171 24.1907L46.0409 39.8908L45.8303 52.5774Z" fill="#3F3D56"/>
<path d="M109.632 43.1193C107.589 39.8596 103.548 39.7077 103.548 39.7077C103.548 39.7077 99.6106 39.2321 97.0845 44.1966C94.7301 48.824 91.4807 53.2918 96.5614 54.375L97.4791 51.6772L98.0475 54.5758C98.7709 54.625 99.4966 54.6367 100.221 54.6109C105.662 54.445 110.844 54.6595 110.677 52.8154C110.456 50.3639 111.597 46.2558 109.632 43.1193Z" fill="#2F2E41"/>
<path d="M100.621 73.7065L101.146 78.6688L113.318 77.4284L113.581 73.7065H100.621Z" fill="#A0616A"/>
<path d="M99.3072 76.4358L98.9569 79.3305C98.9569 79.3305 94.9288 84.6237 95.2791 93.7214C95.6294 102.819 89.7624 143.263 93.9656 143.593C98.1688 143.924 105.7 144.42 106.05 143.18C106.4 141.939 107.101 94.8793 107.101 94.8793C107.101 94.8793 108.94 143.239 112.092 143.404C115.244 143.569 125.84 143.9 125.84 142.66C125.84 141.419 116.558 86.0297 116.558 86.0297L115.069 81.3982L113.581 75.6914C113.581 75.6914 104.299 77.1802 101.759 76.6012C99.2196 76.0223 99.3072 76.4358 99.3072 76.4358Z" fill="#2F2E41"/>
<path d="M103.51 53.5261C106.606 53.5261 109.115 51.1563 109.115 48.2329C109.115 45.3095 106.606 42.9397 103.51 42.9397C100.415 42.9397 97.9061 45.3095 97.9061 48.2329C97.9061 51.1563 100.415 53.5261 103.51 53.5261Z" fill="#A0616A"/>
<path d="M113.318 56.9998L112.254 58.462L111.573 59.3975L110.428 60.9697L104.736 61.3832C104.736 61.3832 103.354 60.9614 101.758 60.3453C101.169 60.117 100.55 59.8623 99.9613 59.5918C97.6784 58.5448 95.8465 57.2669 97.9061 56.4209C98.2718 56.2725 98.6231 56.0943 98.956 55.8882C99.2589 55.7013 99.5409 55.4857 99.7975 55.2448C100.325 54.7454 100.716 54.132 100.936 53.4578C101.155 52.7836 101.197 52.0689 101.059 51.3758L106.575 50.6314C106.415 51.9531 107.806 53.3946 109.366 54.5715C109.878 54.9594 110.41 55.3175 110.91 55.6335C112.221 56.4622 113.318 56.9998 113.318 56.9998Z" fill="#A0616A"/>
<path d="M105.787 58.5712C105.787 58.5712 100.402 57.7028 99.1758 55.8833C99.1758 55.8833 93.878 56.5035 94.3159 59.1502C94.7537 61.7968 99.1321 76.2704 99.1321 76.2704C99.1321 76.2704 110.078 74.2854 114.106 75.7742L116.558 57.3306C116.558 57.3306 115.682 55.5111 114.018 56.0073C112.355 56.5036 111.698 56.0487 111.698 56.0487C111.698 56.0487 109.815 58.5712 105.787 58.5712Z" fill="#D0CDE1"/>
<path d="M110.691 87.6012C110.691 87.6012 114.456 91.5711 112.355 92.2327C110.253 92.8944 107.714 89.5861 107.714 89.5861L110.691 87.6012Z" fill="#A0616A"/>
<path d="M111.917 87.932C111.917 87.932 108.852 89.9169 109.99 91.2402C111.129 92.5635 115.069 90.0823 115.069 89.5861C115.069 89.0899 111.917 87.932 111.917 87.932Z" fill="#A0616A"/>
<path d="M104.386 77.1802L101.847 77.5937L100.183 65.9321C100.279 63.8164 100.205 61.6969 99.9613 59.5918C99.7757 58.1858 99.4657 56.8344 98.956 55.8882C99.2589 55.7012 99.5409 55.4857 99.7975 55.2448C100.407 56.157 101.519 58.089 101.758 60.3453C101.821 60.9103 101.821 61.4798 101.759 62.0449C101.321 65.9321 101.409 66.6764 101.409 66.6764L104.386 77.1802Z" fill="#2F2E41"/>
<path d="M98.5191 56.5863C98.5191 56.5863 94.4034 55.5111 94.0532 57.8269C93.7029 60.1426 94.1407 66.0975 95.104 68.3306C96.0672 70.5636 99.3948 77.8418 99.3948 77.8418C99.3948 77.8418 105.437 85.12 105.7 86.8568C105.962 88.5936 107.276 90.4132 107.276 90.4132L111.479 87.8493L103.248 74.699L99.6575 65.6013C99.6575 65.6013 101.146 57.3306 98.5191 56.5863Z" fill="#D0CDE1"/>
<path d="M114.631 56.9171L116.558 57.3306C116.558 57.3306 118.309 64.4434 117.609 68.2479C116.908 72.0524 116.821 73.3757 116.821 73.3757L116.208 84.2102C116.208 84.2102 116.383 91.1575 115.157 90.0824C113.931 89.0072 111.479 88.5109 111.479 88.5109C111.479 88.5109 111.742 85.4508 112.705 84.7064C112.705 84.7064 113.843 78.9997 113.143 76.5185C112.442 74.0373 114.631 56.9171 114.631 56.9171Z" fill="#D0CDE1"/>
<path d="M115.332 64.9396L113.099 77.1388L111.742 76.6012L114.106 64.9396L111.573 59.3974L109.366 54.5715C109.878 54.9594 110.41 55.3175 110.91 55.6335L112.254 58.462L115.332 64.9396Z" fill="#2F2E41"/>
<path d="M108.729 42.8051L104.736 40.83L99.2232 41.638L98.0826 46.3962L100.922 46.2931L101.715 44.5449V46.2643L103.025 46.2166L103.786 43.4335L104.261 46.3962L108.919 46.3064L108.729 42.8051Z" fill="#2F2E41"/>
<path d="M100.842 144.887C102.345 144.887 103.563 144.455 103.563 143.923C103.563 143.391 102.345 142.959 100.842 142.959C99.3394 142.959 98.1212 143.391 98.1212 143.923C98.1212 144.455 99.3394 144.887 100.842 144.887Z" fill="#2F2E41"/>
<path d="M119.208 144.887C120.711 144.887 121.929 144.455 121.929 143.923C121.929 143.391 120.711 142.959 119.208 142.959C117.705 142.959 116.487 143.391 116.487 143.923C116.487 144.455 117.705 144.887 119.208 144.887Z" fill="#2F2E41"/>
<path d="M50.4279 117.252C47.6448 118.963 44.4374 119.958 41.1224 120.141C37.8075 120.323 34.4994 119.686 31.5248 118.292L31.9459 117.481C35.5315 119.144 39.5955 119.652 43.5158 118.927C47.4361 118.202 50.9968 116.283 53.6528 113.465C56.3088 110.646 57.9137 107.083 58.222 103.322C58.5302 99.5597 57.5248 95.8061 55.3595 92.6353C53.1943 89.4645 49.9886 87.0512 46.2331 85.7648C42.4776 84.4785 38.3792 84.3899 34.5653 85.5127C30.7515 86.6355 27.4322 88.9078 25.1157 91.9817C22.7992 95.0557 21.613 98.7619 21.7388 102.533L20.7825 102.561C20.6765 99.3877 21.453 96.2438 23.0345 93.4425C24.616 90.6411 26.9472 88.2802 29.7958 86.595C32.6445 84.9099 35.911 83.9593 39.2698 83.8382C42.6287 83.717 45.9624 84.4294 48.9389 85.9044C51.9153 87.3794 54.4305 89.5655 56.2336 92.2448C58.0367 94.924 59.0648 98.0028 59.2155 101.174C59.3661 104.346 58.634 107.499 57.0922 110.32C55.5503 113.141 53.2526 115.531 50.4279 117.252Z" fill="white"/>
<path d="M41.7739 100.911C38.9448 101.503 35.1796 101.863 32.4361 101.487L35.8801 103.964L26.2386 109.837L26.7571 110.596L36.3987 104.723L37.3679 108.709C38.1365 106.193 40.0371 103.102 41.7739 100.911Z" fill="white"/>
</g>
<defs>
<clipPath id="clip0">
<rect width="150" height="157" fill="white"/>
</clipPath>
</defs>
</svg>
