<svg width="205" height="156" viewBox="0 0 205 156" fill="none" xmlns="http://www.w3.org/2000/svg">
<g clip-path="url(#clip0)">
<path opacity="0.1" d="M201.754 104.878C196.999 115.306 187.345 122.28 177.34 126.878C163.87 133.071 149.037 135.528 134.408 134.489C131.844 134.307 129.288 134.018 126.74 133.619C117.89 132.247 109.261 129.575 101.102 125.681C98.7465 124.554 96.4393 123.323 94.1797 121.988C90.4057 119.764 86.7896 117.25 83.3604 114.465C82.4978 113.765 81.6472 113.047 80.8086 112.312C80.227 111.802 79.6507 111.28 79.0656 110.774C77.8308 109.707 76.5603 108.693 75.143 107.934C74.7153 107.704 74.2769 107.499 73.8295 107.317C69.3414 105.502 64.1662 106.187 59.4938 107.602C55.9398 108.679 52.4754 110.154 48.925 111.206C47.3458 111.688 45.7366 112.052 44.1094 112.294C40.4765 112.783 36.7872 112.439 33.2901 111.284L32.9913 111.185C32.4902 111.018 31.9933 110.834 31.5006 110.635L31.2018 110.514C30.7246 110.318 30.2575 110.108 29.8006 109.884L29.5017 109.739C29.0245 109.503 28.5575 109.254 28.1006 108.991C27.9359 108.9 27.7731 108.801 27.612 108.708C25.0123 107.164 22.6493 105.208 20.6043 102.907C20.5453 102.844 20.4898 102.779 20.4254 102.716C20.1408 102.389 19.8617 102.056 19.5915 101.716C19.4913 101.59 19.391 101.465 19.2926 101.335C18.9717 100.919 18.6621 100.494 18.3639 100.058C18.3191 99.9957 18.2762 99.931 18.2332 99.8682C17.0113 98.0709 15.9982 96.123 15.2161 94.067C15.1911 94.0043 15.1678 93.9396 15.1463 93.8768C14.9077 93.2235 14.69 92.5595 14.4932 91.8847C14.4126 91.6031 14.3357 91.3139 14.2677 91.0323C14.2444 90.9486 14.223 90.863 14.2033 90.7793C13.2155 86.6448 13.1027 82.3467 13.1027 78.0734C13.1027 77.5749 13.1027 77.077 13.1027 76.5798C13.1314 69.6675 13.2316 62.6372 14.1907 55.82C14.1907 55.7724 14.2033 55.7249 14.2104 55.6792C14.5315 53.3842 14.9681 51.1091 15.5186 48.8639C16.0946 46.508 16.8309 44.1998 17.7214 41.9573C19.9279 36.4396 23.1365 31.4185 26.6994 26.7646C35.6737 15.0538 47.4433 5.22286 61.2189 1.54314C76.0628 -2.42008 92.5602 1.37761 104.534 11.513C108.184 14.6029 111.465 18.2617 115.564 20.6305C119.143 22.693 123.332 23.5473 127.166 21.9243C130.333 20.5829 132.395 19.917 135.952 20.1206C143.317 20.5636 150.577 22.1805 157.491 24.9172C157.77 25.0256 158.049 25.1379 158.326 25.2501C176.348 32.581 191.84 47.1458 199.893 65.8622C200.106 66.3569 200.313 66.8554 200.514 67.3577C205.315 79.2816 207.051 93.2565 201.754 104.878Z" fill="#27D3A8"/>
<path opacity="0.1" d="M21.5277 141.365C30.2526 141.365 37.3254 140.157 37.3254 138.667C37.3254 137.177 30.2526 135.969 21.5277 135.969C12.8029 135.969 5.72999 137.177 5.72999 138.667C5.72999 140.157 12.8029 141.365 21.5277 141.365Z" fill="#27D3A8"/>
<path opacity="0.1" d="M163.249 156C178.719 156 191.26 154.705 191.26 153.108C191.26 151.511 178.719 150.216 163.249 150.216C147.779 150.216 135.238 151.511 135.238 153.108C135.238 154.705 147.779 156 163.249 156Z" fill="#27D3A8"/>
<path d="M188.61 20.501H23.0184C21.784 20.501 20.7833 21.565 20.7833 22.8774V120.55C20.7833 121.862 21.784 122.926 23.0184 122.926H188.61C189.844 122.926 190.845 121.862 190.845 120.55V22.8774C190.845 21.565 189.844 20.501 188.61 20.501Z" fill="url(#paint0_linear)"/>
<path d="M188.359 21.9413H23.2886C22.0542 21.9413 21.0535 23.0053 21.0535 24.3177V120.209C21.0535 121.522 22.0542 122.586 23.2886 122.586H188.359C189.594 122.586 190.594 121.522 190.594 120.209V24.3177C190.594 23.0053 189.594 21.9413 188.359 21.9413Z" fill="white"/>
<path d="M188.359 21.9413H23.2886C22.0542 21.9413 21.0535 23.0053 21.0535 24.3177V120.209C21.0535 121.522 22.0542 122.586 23.2886 122.586H188.359C189.594 122.586 190.594 121.522 190.594 120.209V24.3177C190.594 23.0053 189.594 21.9413 188.359 21.9413Z" fill="white"/>
<path opacity="0.04" d="M188.359 21.9413H23.2886C22.0542 21.9413 21.0535 23.0053 21.0535 24.3177V120.209C21.0535 121.522 22.0542 122.586 23.2886 122.586H188.359C189.594 122.586 190.594 121.522 190.594 120.209V24.3177C190.594 23.0053 189.594 21.9413 188.359 21.9413Z" fill="white"/>
<path d="M189.734 20.7864H21.9142C21.686 20.7864 21.467 20.8828 21.3056 21.0545C21.1442 21.2261 21.0535 21.4589 21.0535 21.7016V25.5697H190.587V21.7016C190.587 21.4602 190.498 21.2286 190.338 21.0571C190.178 20.8857 189.961 20.7884 189.734 20.7864Z" fill="#5A5773"/>
<path d="M24.4392 24.4148C25.0816 24.4148 25.6024 23.8611 25.6024 23.178C25.6024 22.495 25.0816 21.9413 24.4392 21.9413C23.7968 21.9413 23.2761 22.495 23.2761 23.178C23.2761 23.8611 23.7968 24.4148 24.4392 24.4148Z" fill="white"/>
<path d="M27.5709 24.4148C28.2133 24.4148 28.734 23.8611 28.734 23.178C28.734 22.495 28.2133 21.9413 27.5709 21.9413C26.9285 21.9413 26.4077 22.495 26.4077 23.178C26.4077 23.8611 26.9285 24.4148 27.5709 24.4148Z" fill="white"/>
<path d="M30.7025 24.4148C31.3449 24.4148 31.8657 23.8611 31.8657 23.178C31.8657 22.495 31.3449 21.9413 30.7025 21.9413C30.0601 21.9413 29.5393 22.495 29.5393 23.178C29.5393 23.8611 30.0601 24.4148 30.7025 24.4148Z" fill="white"/>
<path opacity="0.2" d="M80.5151 34.5654H35.017V38.6713H80.5151V34.5654Z" fill="#27D3A8"/>
<path opacity="0.1" d="M176.631 51.029H35.017V114.189H176.631V51.029Z" fill="#5A5773"/>
<path opacity="0.1" d="M117.934 55.1483H115.509V50.1405C115.509 44.4896 111.271 39.792 105.956 39.7064C104.675 39.692 103.403 39.9475 102.215 40.4581C101.027 40.9687 99.9452 41.7242 99.0328 42.6812C98.1204 43.6382 97.3951 44.7778 96.8988 46.0341C96.4025 47.2905 96.1449 48.6389 96.141 50.0016V55.1483H93.7216C92.6524 55.1518 91.6279 55.6049 90.8718 56.4088C90.1158 57.2126 89.6896 58.3019 89.6863 59.4387V80.0292C89.6896 81.166 90.1158 82.2553 90.8718 83.0591C91.6279 83.863 92.6524 84.3161 93.7216 84.3196H117.934C119.003 84.3161 120.027 83.8629 120.783 83.059C121.538 82.2551 121.964 81.1658 121.967 80.0292V59.4387C121.964 58.3021 121.538 57.2128 120.783 56.4089C120.027 55.605 119.003 55.1518 117.934 55.1483ZM107.241 68.5334V75.908C107.244 76.2985 107.106 76.6754 106.857 76.9622C106.608 77.2491 106.265 77.4245 105.899 77.453C105.708 77.4625 105.517 77.4307 105.338 77.3595C105.158 77.2882 104.994 77.179 104.856 77.0385C104.717 76.898 104.607 76.7291 104.532 76.542C104.456 76.3549 104.417 76.1534 104.417 75.9499V68.5296C103.763 68.1901 103.236 67.6248 102.922 66.9258C102.609 66.2269 102.527 65.4356 102.691 64.681C102.855 63.9265 103.254 63.2532 103.824 62.7711C104.394 62.289 105.101 62.0266 105.829 62.0266C106.558 62.0266 107.265 62.289 107.835 62.7711C108.405 63.2532 108.804 63.9265 108.968 64.681C109.132 65.4356 109.05 66.2269 108.737 66.9258C108.423 67.6248 107.896 68.1901 107.241 68.5296V68.5334ZM112.689 55.1483H98.9648V50.0016C98.9648 48.0674 99.6875 46.2124 100.974 44.8448C102.26 43.4771 104.005 42.7087 105.824 42.7087C107.643 42.7087 109.388 43.4771 110.674 44.8448C111.96 46.2124 112.683 48.0674 112.683 50.0016L112.689 55.1483Z" fill="black"/>
<path d="M117.934 54.7677H115.509V49.76C115.509 44.1091 111.271 39.4114 105.956 39.3258C104.675 39.3115 103.403 39.567 102.215 40.0776C101.027 40.5881 99.9452 41.3437 99.0328 42.3007C98.1204 43.2577 97.3951 44.3972 96.8988 45.6536C96.4025 46.91 96.1449 48.2584 96.141 49.6211V54.7677H93.7216C92.6524 54.7712 91.6279 55.2244 90.8718 56.0282C90.1158 56.8321 89.6896 57.9214 89.6863 59.0582V79.6486C89.6896 80.7855 90.1158 81.8747 90.8718 82.6786C91.6279 83.4824 92.6524 83.9356 93.7216 83.9391H117.934C119.003 83.9356 120.027 83.4824 120.783 82.6785C121.538 81.8746 121.964 80.7853 121.967 79.6486V59.0582C121.964 57.9215 121.538 56.8323 120.783 56.0284C120.027 55.2245 119.003 54.7712 117.934 54.7677V54.7677ZM107.241 68.1528V75.5275C107.244 75.918 107.106 76.2948 106.857 76.5817C106.608 76.8686 106.265 77.044 105.899 77.0725C105.708 77.082 105.517 77.0502 105.338 76.9789C105.158 76.9077 104.994 76.7985 104.856 76.658C104.717 76.5175 104.607 76.3486 104.532 76.1615C104.456 75.9743 104.417 75.7729 104.417 75.5694V68.149C103.763 67.8096 103.236 67.2443 102.922 66.5453C102.609 65.8464 102.527 65.055 102.691 64.3005C102.855 63.5459 103.254 62.8727 103.824 62.3906C104.394 61.9085 105.101 61.6461 105.829 61.6461C106.558 61.6461 107.265 61.9085 107.835 62.3906C108.405 62.8727 108.804 63.5459 108.968 64.3005C109.132 65.055 109.05 65.8464 108.737 66.5453C108.423 67.2443 107.896 67.8096 107.241 68.149V68.1528ZM112.689 54.7677H98.9648V49.6211C98.9648 47.6869 99.6875 45.8319 100.974 44.4642C102.26 43.0966 104.005 42.3282 105.824 42.3282C107.643 42.3282 109.388 43.0966 110.674 44.4642C111.96 45.8319 112.683 47.6869 112.683 49.6211L112.689 54.7677Z" fill="#27D3A8"/>
<path opacity="0.1" d="M176.631 44.9501H162.297V48.548H176.631V44.9501Z" fill="#5A5773"/>
<path d="M181.509 153.979C181.415 153.475 181.253 152.987 181.03 152.531L178.882 149.122H178.895C178.895 149.122 178.557 147.41 178.895 146.569C179.233 145.728 177.689 143.659 177.689 143.659C177.689 143.659 177.501 143.14 177.991 142.501C178.481 141.861 177.689 139.989 177.689 139.989C177.689 139.989 177.313 136.079 177.275 135.482C177.238 134.884 176.935 131.574 176.935 131.574L176.219 124.555L174.945 105.953L174.922 105.605C175.08 105.523 175.164 105.471 175.164 105.471L174.91 95.1857L175.13 94.9745C177.052 93.1251 181.484 88.8441 181.439 88.7509C181.395 88.6577 180.903 81.6027 180.845 79.837C180.796 78.5822 180.538 77.3467 180.083 76.1877C179.972 75.9537 179.652 74.4107 179.519 73.7581C179.483 73.5792 179.46 73.467 179.46 73.467C179.46 73.467 178.161 70.8337 178.274 69.6369C178.387 68.4402 178.612 67.544 175.842 67.1254C175.842 67.1254 173.516 66.7563 172.13 65.7498C171.311 65.1469 170.416 64.6703 169.471 64.3342C169.471 64.3342 168.695 62.8121 168.154 63.3277C167.925 62.7846 167.754 62.216 167.644 61.6325L167.628 61.5259C168.654 60.7654 169.392 59.6419 169.711 58.3561C169.729 58.2838 169.743 58.2096 169.759 58.1373C169.813 58.1567 169.869 58.1676 169.926 58.1697C170.396 58.1697 170.686 57.6122 171.127 57.4352C171.305 57.361 171.526 57.3496 171.663 57.1993C171.709 57.1414 171.743 57.0742 171.763 57.0019C171.783 56.9297 171.79 56.8538 171.781 56.7788C171.786 56.7269 171.786 56.6747 171.781 56.6228C171.782 56.6044 171.782 56.586 171.781 56.5676V56.5867C171.662 55.8941 171.157 55.2795 171.212 54.5756C171.266 53.9134 171.814 53.3312 171.769 52.6862C171.768 52.6352 171.764 52.5844 171.756 52.534V52.5568C171.69 52.305 171.567 52.074 171.399 51.8833C171.206 51.6043 170.953 51.3785 170.661 51.225C170.413 51.1089 170.124 51.0823 169.892 50.9434C169.208 50.5477 169.21 49.5164 168.804 48.8124C168.63 48.5186 168.383 48.2815 168.09 48.1274C167.797 47.9733 167.47 47.9081 167.145 47.9391C166.637 47.9924 166.177 48.2797 165.674 48.3729C164.987 48.5023 164.287 48.2645 163.636 47.9924C162.984 47.7203 162.324 47.4216 161.624 47.4216C160.925 47.4216 160.168 47.8021 159.956 48.5042C159.844 48.8847 159.899 49.2938 159.813 49.68C159.659 50.3612 159.098 50.8483 158.516 51.1869C158.158 51.3981 157.732 51.6398 157.621 52.0393C157.621 52.0279 157.621 52.0184 157.621 52.0089C157.613 52.0408 157.607 52.0732 157.603 52.1059C157.6 52.1483 157.6 52.191 157.603 52.2334C157.603 52.5074 157.739 52.768 157.831 53.0287C158.001 53.5246 157.997 54.0691 157.82 54.5622C157.687 54.9237 157.462 55.2415 157.333 55.6011C157.272 55.7686 157.233 55.9439 157.215 56.1224V56.092C157.211 56.1731 157.211 56.2544 157.215 56.3355C157.213 56.6134 157.274 56.8876 157.394 57.1346C157.476 57.3052 157.589 57.4565 157.727 57.5797C157.865 57.7029 158.025 57.7955 158.197 57.8519C158.555 57.9394 158.779 57.5665 159.157 57.6617C159.224 57.679 159.29 57.7012 159.355 57.7282C159.368 57.8139 159.38 57.8995 159.395 57.9832C159.623 59.2637 160.265 60.4192 161.209 61.25C161.209 61.2957 161.223 61.3414 161.229 61.3889C161.343 62.1475 161.393 62.9155 161.377 63.6835C161.377 63.6835 160.814 62.8064 160.041 64.4998C160.041 64.4998 158.024 65.7365 157.328 65.8773C156.632 66.0181 154.16 66.9333 154.16 66.9333C153.787 67.2198 153.339 67.3737 152.879 67.3728C152.108 67.3728 151.467 69.167 151.56 70.143C151.653 71.1191 151.505 71.8383 150.787 71.8782C150.069 71.9182 150.461 73.465 150.467 73.4917L150.401 73.8246C150.261 74.5058 149.957 75.967 149.849 76.1953C149.394 77.3544 149.136 78.5898 149.085 79.8446C149.03 81.6103 148.548 88.6387 148.493 88.7585C148.455 88.8365 151.492 91.7875 153.627 93.85L153.937 94.1468L152.954 103.904C152.983 104.28 153.088 104.644 153.262 104.973C153.436 105.301 153.676 105.586 153.963 105.806C153.963 105.92 153.963 106.036 153.953 106.156C153.91 107.298 153.824 108.679 153.652 109.041C153.351 109.68 153.427 113.109 153.427 113.109C153.427 113.109 153.124 120.088 152.748 120.847C152.373 121.606 152.296 123.198 152.408 123.51C152.521 123.822 152.031 132.204 152.031 132.204L151.655 135.954C151.655 135.954 151.768 139.542 151.428 139.622C151.088 139.702 150.9 142.175 150.9 142.175C150.9 142.175 149.695 143.93 150.222 144.567C150.748 145.204 150.145 145.486 150.089 145.644C150.034 145.802 148.94 146.405 149.731 148.635C149.739 148.657 149.747 148.678 149.756 148.7C149.015 149.794 146.668 153.323 146.811 153.86C146.916 154.201 147.14 154.487 147.437 154.659C147.99 155.011 148.939 155.174 150.447 154.659C152.952 153.801 152.773 153.182 152.773 153.182C152.786 152.893 152.903 152.62 153.099 152.42C153.296 152.22 153.557 152.107 153.829 152.105C154.865 152.025 155.638 151.009 155.638 151.009L155.517 150.528L155.35 149.862C155.37 149.672 155.497 149.339 156.066 149.154C156.934 148.875 156.707 147.12 156.707 147.12C156.707 147.12 156.632 145.286 157.007 145.046C157.383 144.807 157.235 141.776 157.235 141.776C157.235 141.776 157.65 139.582 158.251 138.106C158.852 136.629 159.572 127.858 159.572 127.858C159.572 127.858 160.06 123.55 160.513 122.314C160.966 121.077 161.381 117.608 161.381 117.608C161.381 117.608 164.171 111.864 164.207 110.588C164.207 110.588 164.564 109.391 164.922 110.707C165.28 112.024 166.286 115.175 166.286 115.175L167.265 119.043L168.433 124.825L169.188 129.692C169.188 129.692 169.074 131.526 169.367 132.166C169.661 132.805 170.083 134.277 169.858 134.557C169.632 134.837 170.309 136.153 170.498 136.431C170.688 136.709 170.498 142.613 170.498 142.613C170.498 142.613 171.365 147.638 172.608 148.511C172.695 148.572 172.787 148.623 172.884 148.663C172.866 149.208 172.848 149.936 172.871 150.317C172.869 150.402 172.882 150.487 172.911 150.566C173.023 150.726 174.305 151.803 174.57 151.803C174.834 151.803 175.774 152.501 175.813 152.84C175.853 153.178 178.567 154.613 178.952 154.655C179.337 154.697 181.201 155.052 181.457 154.495C181.521 154.332 181.539 154.153 181.509 153.979ZM174.84 82.1126L175.033 82.2895C175.033 82.2895 175.232 83.9353 175.373 84.4281C175.514 84.9209 175.344 85.8798 175.344 85.8798C175.357 86.2377 175.424 86.591 175.543 86.9263C175.711 87.2859 175.203 88.0679 175.203 88.0679H174.75L174.609 81.9071L174.84 82.1126ZM161.377 63.7178V63.6816C161.374 63.693 161.372 63.7064 161.372 63.7178H161.377ZM154.425 87.4343C154.355 87.2749 154.345 87.0934 154.396 86.9263C154.437 86.836 154.468 86.7416 154.491 86.6447C154.547 86.3947 154.582 86.1401 154.595 85.8836C154.595 85.8805 154.595 85.8773 154.595 85.8741C154.579 85.7828 154.434 84.9 154.568 84.4319C154.702 83.9639 154.906 82.2933 154.906 82.2933L155.035 82.1773L155.334 81.9014C155.334 81.9014 155.334 81.7986 155.356 81.6293C155.418 83.0753 155.468 84.6735 155.388 84.7535C155.238 84.9114 154.69 86.4658 154.822 86.5267C154.865 86.5477 154.806 87.1698 154.706 88.007C154.594 87.8273 154.499 87.6353 154.425 87.4343V87.4343Z" fill="url(#paint1_linear)"/>
<path d="M168.849 65.238V67.6049L164.282 70.046C164.282 70.046 159.747 67.1292 160.866 65.9686C161.581 65.2342 161.444 63.2174 161.25 61.8303C161.138 61.0236 161.007 60.4319 161.007 60.4319C161.007 60.4319 169.153 57.9584 167.922 59.8364C167.51 60.4642 167.478 61.2767 167.616 62.0815C167.895 63.6778 168.849 65.238 168.849 65.238Z" fill="#C37098"/>
<path d="M156.338 88.3837L155.749 96.0932C155.749 96.0932 154.867 95.2427 153.725 94.1354C151.608 92.0824 148.602 89.1467 148.638 89.0687C148.693 88.9488 149.175 81.9547 149.227 80.1966C149.276 78.9487 149.531 77.7198 149.982 76.5664C150.089 76.338 150.392 74.8844 150.519 74.2052C150.562 73.994 150.588 73.857 150.588 73.857L151.576 73.4346C151.576 73.4346 155.692 78.3168 155.692 78.4062C155.692 78.4956 155.411 82.2458 155.411 82.2458L155.119 82.5159L154.992 82.632C154.992 82.632 154.796 84.2702 154.656 84.7611C154.516 85.2519 154.667 86.1043 154.683 86.1957C154.67 86.452 154.636 86.7067 154.581 86.9567C154.557 87.0529 154.526 87.1465 154.486 87.2364C154.436 87.403 154.446 87.5836 154.515 87.7425C154.594 87.9631 154.697 88.1732 154.822 88.3685L156.338 88.3837Z" fill="#3F3D56"/>
<path d="M181.282 89.0687C181.325 89.1619 176.935 93.4219 175.033 95.2618L174.17 96.0932L173.587 88.3837H175.099C175.099 88.3837 175.604 87.6093 175.436 87.2516C175.318 86.9181 175.253 86.5667 175.241 86.2109C175.241 86.2109 175.407 85.2596 175.267 84.7668C175.128 84.274 174.931 82.6377 174.931 82.6377L174.74 82.4627L174.512 82.2515C174.512 82.2515 174.231 78.5014 174.231 78.4119C174.231 78.3225 178.347 73.4403 178.347 73.4403L179.328 73.857C179.328 73.857 179.349 73.9692 179.385 74.1481C179.518 74.7969 179.834 76.3323 179.943 76.5664C180.394 77.7198 180.65 78.9487 180.699 80.1966C180.745 81.9547 181.225 88.9488 181.282 89.0687Z" fill="#3F3D56"/>
<path d="M181.3 154.508C181.037 155.064 179.19 154.699 178.809 154.668C178.428 154.638 175.736 153.197 175.699 152.861C175.661 152.524 174.729 151.829 174.468 151.829C174.206 151.829 172.938 150.756 172.825 150.598C172.796 150.52 172.783 150.435 172.787 150.351C172.748 149.698 172.825 148.018 172.825 148.018L178.238 148.336L180.869 152.543C181.09 152.997 181.251 153.482 181.345 153.983C181.376 154.159 181.361 154.341 181.3 154.508V154.508Z" fill="#3F3D56"/>
<path opacity="0.1" d="M181.3 154.508C181.037 155.064 179.19 154.699 178.809 154.668C178.428 154.638 175.736 153.197 175.699 152.861C175.661 152.524 174.729 151.829 174.468 151.829C174.206 151.829 172.938 150.756 172.825 150.598C172.796 150.52 172.783 150.435 172.787 150.351C172.748 149.698 172.825 148.018 172.825 148.018L178.238 148.336L180.869 152.543C181.09 152.997 181.251 153.482 181.345 153.983C181.376 154.159 181.361 154.341 181.3 154.508V154.508Z" fill="black"/>
<path opacity="0.1" d="M181.3 154.508C181.037 155.064 179.19 154.699 178.809 154.668C178.428 154.638 175.736 153.197 175.699 152.861C175.661 152.524 174.729 151.829 174.468 151.829C174.206 151.829 172.938 150.756 172.825 150.598C172.796 150.52 172.783 150.435 172.787 150.351L174.541 151.531C174.541 151.531 175.661 152.292 175.96 152.743C176.259 153.194 178.614 154.132 178.809 154.151C178.954 154.166 180.5 153.85 181.345 153.983C181.376 154.159 181.361 154.341 181.3 154.508V154.508Z" fill="black"/>
<path d="M155.71 151.036C155.71 151.036 154.944 152.048 153.92 152.126C153.65 152.128 153.391 152.241 153.197 152.44C153.002 152.639 152.887 152.91 152.875 153.197C152.875 153.197 153.054 153.814 150.579 154.668C149.085 155.18 148.146 155.018 147.598 154.668C147.304 154.496 147.082 154.212 146.977 153.873C146.809 153.239 150.112 148.416 150.112 148.416L153.119 148.226L155.266 149.257L155.595 150.564L155.71 151.036Z" fill="#3F3D56"/>
<path opacity="0.1" d="M155.71 151.036C155.71 151.036 154.944 152.048 153.92 152.126C153.65 152.128 153.391 152.241 153.197 152.44C153.002 152.639 152.887 152.91 152.875 153.197C152.875 153.197 153.054 153.814 150.579 154.668C149.085 155.18 148.146 155.018 147.598 154.668C147.304 154.496 147.082 154.212 146.977 153.873C146.809 153.239 150.112 148.416 150.112 148.416L153.119 148.226L155.266 149.257L155.595 150.564L155.71 151.036Z" fill="black"/>
<path opacity="0.1" d="M155.71 151.036C155.71 151.036 154.944 152.048 153.92 152.126C153.65 152.128 153.391 152.241 153.197 152.44C153.002 152.639 152.887 152.91 152.875 153.197C152.875 153.197 153.054 153.814 150.579 154.668C149.085 155.18 148.146 155.018 147.598 154.668C149.006 154.512 152.118 153.567 152.43 153.239C152.804 152.842 153.271 151.749 153.588 151.73C153.808 151.715 154.926 151 155.597 150.557L155.71 151.036Z" fill="black"/>
<path d="M178.761 146.61C178.424 147.444 178.761 149.15 178.761 149.15C178.761 149.15 173.75 149.428 172.526 148.555C171.302 147.682 170.436 142.68 170.436 142.68C170.436 142.68 170.615 136.806 170.436 136.528C170.257 136.251 169.577 134.941 169.801 134.664C170.024 134.386 169.622 132.917 169.316 132.282C169.01 131.646 169.137 129.821 169.137 129.821L168.389 124.977L167.233 119.224L166.25 115.373C166.25 115.373 165.243 112.237 164.901 110.928C164.559 109.619 164.198 110.808 164.198 110.808C164.162 112.079 161.399 117.795 161.399 117.795C161.399 117.795 160.987 121.248 160.54 122.477C160.092 123.706 159.606 127.995 159.606 127.995C159.606 127.995 158.89 136.726 158.299 138.195C157.709 139.664 157.303 141.846 157.303 141.846C157.303 141.846 157.453 144.864 157.079 145.102C156.705 145.339 156.766 147.166 156.766 147.166C156.766 147.166 156.989 148.911 156.13 149.19C155.272 149.47 155.415 150.064 155.415 150.064C155.415 150.064 150.637 150.897 149.853 148.673C149.069 146.449 150.152 145.857 150.211 145.697C150.27 145.537 150.866 145.261 150.343 144.624C149.821 143.987 151.014 142.244 151.014 142.244C151.014 142.244 151.202 139.784 151.537 139.704C151.871 139.624 151.762 136.053 151.762 136.053L152.135 132.322C152.135 132.322 152.621 123.986 152.509 123.668C152.396 123.351 152.471 121.766 152.845 121.005C153.219 120.244 153.516 113.303 153.516 113.303C153.516 113.303 153.441 109.891 153.74 109.256C153.919 108.896 153.994 107.513 154.037 106.385C154.069 105.523 154.076 104.809 154.076 104.809L158.256 103.143L163.625 101.318L168.142 103.62L174.75 104.969L174.833 106.181L176.094 124.696L176.81 131.68C176.81 131.68 177.109 134.974 177.146 135.569C177.184 136.165 177.556 140.056 177.556 140.056C177.556 140.056 178.34 141.92 177.855 142.556C177.37 143.191 177.556 143.697 177.556 143.697C177.556 143.697 179.097 145.777 178.761 146.61Z" fill="#3F3D56"/>
<path opacity="0.1" d="M167.925 59.8364C167.514 60.4642 167.481 61.2767 167.619 62.0815C166.679 62.7869 165.546 63.1442 164.396 63.0985C163.246 63.0528 162.142 62.6065 161.254 61.8284V61.8284C161.141 61.0217 161.01 60.43 161.01 60.43C161.01 60.43 169.156 57.9604 167.925 59.8364Z" fill="black"/>
<path d="M169.829 57.4086C169.829 58.5112 169.522 59.589 168.946 60.5058C168.369 61.4225 167.55 62.1371 166.592 62.559C165.634 62.9809 164.58 63.0913 163.563 62.8762C162.546 62.6611 161.612 62.1302 160.878 61.3505C160.145 60.5709 159.646 59.5776 159.443 58.4962C159.241 57.4148 159.345 56.2939 159.742 55.2752C160.139 54.2566 160.811 53.3859 161.673 52.7733C162.535 52.1608 163.549 51.8338 164.586 51.8338C165.275 51.8303 165.959 51.9721 166.596 52.251C167.234 52.5299 167.813 52.9404 168.301 53.4588C168.788 53.9771 169.174 54.5931 169.437 55.2711C169.699 55.949 169.832 56.6755 169.829 57.4086Z" fill="#C37098"/>
<path opacity="0.1" d="M170.921 66.6726L169.203 99.1984L159.871 97.115L158.022 84.0761L159.853 66.5717L161.231 66.7601L163.661 67.0893L166.068 67.2472L168.677 66.939L170.921 66.6726Z" fill="black"/>
<path d="M170.921 66.9104L169.203 99.4362L159.871 97.3528L158.022 84.3139L159.853 66.8115L161.231 66.9979L163.661 67.3271L166.068 67.485L168.677 67.1768L170.921 66.9104Z" fill="#27D3A8"/>
<path d="M163.249 67.7837L166.61 67.9036L165.665 69.3097C165.665 69.3097 165.731 72.1503 166.18 72.9646C166.629 73.779 166.497 86.3593 166.497 86.3593L165.602 88.1649L164.072 86.1405L164.092 69.5304L163.249 67.7837Z" fill="#3F3D56"/>
<path opacity="0.1" d="M163.249 67.7837L166.61 67.9036L165.665 69.3097C165.665 69.3097 165.731 72.1503 166.18 72.9646C166.629 73.779 166.497 86.3593 166.497 86.3593L165.602 88.1649L164.072 86.1405L164.092 69.5304L163.249 67.7837Z" fill="black"/>
<path opacity="0.1" d="M168.512 64.0926L165.377 67.7837L167.168 69.7682L170.137 66.6916L168.512 64.0926Z" fill="black"/>
<path d="M168.512 63.8548L165.377 67.5459L167.168 69.5304L170.137 66.4538L168.512 63.8548Z" fill="#27D3A8"/>
<path opacity="0.1" d="M164.053 67.6049L160.878 64.2315L160.579 65.9971L162.036 69.8671L164.053 67.6049Z" fill="black"/>
<path d="M164.164 67.3671L160.991 63.9937L160.692 65.7593L162.149 69.6293L164.164 67.3671Z" fill="#27D3A8"/>
<path opacity="0.1" d="M174.849 106.187C173.325 106.959 171.693 107.461 170.017 107.673C166.937 108.089 164.922 103.923 164.922 103.923L163.747 105.549C163.373 107.277 157.68 107.713 155.366 107.058C154.886 106.932 154.435 106.705 154.039 106.39C154.071 105.528 154.078 104.815 154.078 104.815L158.258 103.148L163.627 101.324L168.143 103.626L174.752 104.975L174.849 106.187Z" fill="black"/>
<path opacity="0.1" d="M170.921 66.9123L169.205 99.4362L159.871 97.3528L158.018 84.3158L159.847 66.8115L161.225 67.0017C161.19 67.6394 161.122 68.2745 161.023 68.9044C160.799 70.0174 162.181 77.9153 162.181 77.9153C162.181 77.9153 164.806 86.7722 165.987 85.4955C167.168 84.2188 168.85 77.4777 168.85 77.4777C169.99 74.9776 168.87 67.9645 168.786 67.8237C168.727 67.6163 168.691 67.4024 168.678 67.1863L170.921 66.9123Z" fill="black"/>
<path opacity="0.1" d="M174.952 92.0805L175.031 95.2675L174.169 96.0989L173.587 88.3837H174.876L174.952 92.0805Z" fill="black"/>
<path opacity="0.1" d="M154.685 86.2014C154.671 86.4577 154.637 86.7124 154.583 86.9624C154.583 86.892 154.583 86.8521 154.568 86.8464C154.515 86.8311 154.579 86.54 154.685 86.2014Z" fill="black"/>
<path opacity="0.1" d="M156.338 88.3837L155.749 96.0932C155.749 96.0932 154.867 95.2427 153.725 94.1354L153.861 92.7693C153.861 92.7693 154.343 89.413 154.518 87.7577C154.598 87.9783 154.701 88.1884 154.826 88.3837H156.338Z" fill="black"/>
<path d="M161.401 64.1116C161.401 64.1116 160.842 63.2383 160.076 64.9241C160.076 64.9241 158.079 66.1551 157.392 66.294C156.705 66.4329 154.26 67.3461 154.26 67.3461C153.891 67.6299 153.447 67.7824 152.992 67.7818C152.226 67.7818 151.591 69.5684 151.684 70.5407C151.777 71.5129 151.628 72.2283 150.919 72.2683C150.211 72.3082 150.601 73.8741 150.601 73.8741L155.323 79.6296C155.323 79.6296 155.622 84.9285 155.474 85.0883C155.325 85.2481 154.783 86.8007 154.914 86.854C155.044 86.9073 154.198 92.7674 154.198 92.7674L153.06 104.14C153.06 104.14 153.06 106.042 155.375 106.699C157.691 107.355 163.387 106.921 163.754 105.194L164.929 103.565C164.929 103.565 166.944 107.734 170.024 107.317C173.104 106.9 175.065 105.709 175.065 105.709L174.729 92.0806L174.505 82.2572L179.313 73.857C179.313 73.857 178.025 71.237 178.138 70.0517C178.251 68.8663 178.472 67.9683 175.729 67.5516C175.729 67.5516 173.415 67.1844 172.052 66.1817C171.241 65.5835 170.356 65.1095 169.421 64.7738C169.421 64.7738 168.652 63.2516 168.117 63.773C168.117 63.773 168.653 65.9249 168.609 66.2464C168.564 66.5679 168.693 68.0216 168.777 68.1719C168.861 68.3222 169.981 75.3258 168.841 77.8259C168.841 77.8259 167.168 84.567 165.978 85.8437C164.788 87.1204 162.172 78.2635 162.172 78.2635C162.172 78.2635 160.79 70.3637 161.014 69.2526C161.238 68.1414 161.401 64.1116 161.401 64.1116Z" fill="#3F3D56"/>
<path d="M165.395 90.1303C165.848 90.1303 166.216 89.7393 166.216 89.257C166.216 88.7747 165.848 88.3837 165.395 88.3837C164.941 88.3837 164.573 88.7747 164.573 89.257C164.573 89.7393 164.941 90.1303 165.395 90.1303Z" fill="#3F3D56"/>
<path d="M165.395 94.2477C165.848 94.2477 166.216 93.8567 166.216 93.3744C166.216 92.892 165.848 92.501 165.395 92.501C164.941 92.501 164.573 92.892 164.573 93.3744C164.573 93.8567 164.941 94.2477 165.395 94.2477Z" fill="#3F3D56"/>
<path opacity="0.1" d="M165.395 90.1303C165.848 90.1303 166.216 89.7393 166.216 89.257C166.216 88.7747 165.848 88.3837 165.395 88.3837C164.941 88.3837 164.573 88.7747 164.573 89.257C164.573 89.7393 164.941 90.1303 165.395 90.1303Z" fill="black"/>
<path opacity="0.1" d="M165.395 94.2477C165.848 94.2477 166.216 93.8567 166.216 93.3744C166.216 92.892 165.848 92.501 165.395 92.501C164.941 92.501 164.573 92.892 164.573 93.3744C164.573 93.8567 164.941 94.2477 165.395 94.2477Z" fill="black"/>
<path opacity="0.1" d="M172.776 145.419C172.776 145.419 176.148 145.697 176.483 145.975C176.817 146.253 172.776 145.419 172.776 145.419Z" fill="black" stroke="#27D3A8" stroke-miterlimit="10"/>
<path opacity="0.1" d="M152.704 142.602C152.704 142.602 153.419 143.553 153.115 143.99C152.811 144.428 152.704 142.602 152.704 142.602Z" fill="black" stroke="#27D3A8" stroke-miterlimit="10"/>
<path opacity="0.1" d="M153.563 146.032C153.563 146.032 154.869 145.119 155.391 145.726C155.914 146.333 153.563 146.032 153.563 146.032Z" fill="black" stroke="#27D3A8" stroke-miterlimit="10"/>
<path opacity="0.1" d="M169.829 57.4086C169.83 57.8843 169.774 58.3581 169.661 58.8185C169.551 58.7649 169.458 58.6769 169.396 58.566C169.334 58.4552 169.305 58.3269 169.314 58.1982C169.337 57.9718 169.478 57.7644 169.448 57.5399C169.403 57.1936 169.01 57.0528 168.802 56.7788C168.546 56.4478 168.602 55.9664 168.623 55.5383C168.645 55.1102 168.542 54.587 168.165 54.4405C168.052 54.3967 167.929 54.3929 167.82 54.3434C167.522 54.2102 167.431 53.8183 167.233 53.5481C166.835 53.004 166.046 53.0154 165.443 53.2741C165.181 53.408 164.912 53.5273 164.638 53.6318C164.501 53.6833 164.355 53.7039 164.21 53.6925C164.065 53.681 163.923 53.6377 163.795 53.5652C163.677 53.4853 163.582 53.375 163.46 53.2951C163.056 53.0363 162.526 53.2951 162.175 53.628C161.825 53.961 161.544 54.4081 161.102 54.6117C160.903 54.7068 160.658 54.7639 160.565 54.9694C160.519 55.0813 160.499 55.2034 160.508 55.3252C160.508 56.0653 160.59 56.8169 160.445 57.5418C160.352 58.0079 160.044 58.5369 159.599 58.4798C159.543 58.471 159.488 58.4564 159.436 58.436C159.302 57.674 159.318 56.8906 159.485 56.1359C159.652 55.3812 159.965 54.6717 160.404 54.0528C160.843 53.434 161.399 52.9193 162.036 52.5417C162.673 52.1641 163.376 51.9319 164.102 51.8599C164.828 51.7879 165.561 51.8777 166.252 52.1235C166.944 52.3693 167.579 52.7658 168.119 53.2877C168.658 53.8095 169.089 54.4451 169.384 55.154C169.679 55.863 169.832 56.6295 169.833 57.4048L169.829 57.4086Z" fill="black"/>
<path d="M159.201 58.1202C159.335 58.1525 159.463 58.2267 159.6 58.2458C160.046 58.3029 160.354 57.7739 160.447 57.3078C160.592 56.5829 160.517 55.8313 160.511 55.0912C160.501 54.9695 160.52 54.8471 160.567 54.7354C160.669 54.5299 160.914 54.4728 161.104 54.3777C161.537 54.1722 161.819 53.7346 162.177 53.394C162.535 53.0534 163.056 52.8023 163.46 53.0611C163.58 53.1372 163.677 53.2513 163.795 53.3312C163.924 53.4026 164.066 53.4454 164.211 53.4568C164.356 53.4683 164.502 53.4482 164.64 53.3978C164.917 53.3103 165.176 53.1562 165.443 53.0401C166.041 52.7814 166.832 52.7718 167.233 53.3122C167.431 53.5843 167.522 53.9743 167.82 54.1075C167.929 54.157 168.052 54.1627 168.165 54.2064C168.542 54.3568 168.639 54.8762 168.623 55.3043C168.607 55.7324 168.553 56.2137 168.802 56.5448C169.01 56.815 169.403 56.9558 169.448 57.3059C169.477 57.5304 169.337 57.7397 169.314 57.9642C169.308 58.0476 169.319 58.1314 169.344 58.2105C169.369 58.2897 169.409 58.3628 169.461 58.4254C169.514 58.4881 169.577 58.5391 169.648 58.5755C169.718 58.612 169.795 58.6331 169.874 58.6377C170.339 58.6377 170.627 58.0841 171.062 57.9071C171.241 57.8329 171.458 57.8215 171.599 57.6712C171.651 57.5989 171.689 57.5154 171.708 57.4264C171.727 57.3373 171.728 57.2449 171.71 57.1556C171.622 56.4268 171.073 55.7933 171.132 55.0626C171.187 54.3625 171.798 53.7517 171.669 53.063C171.603 52.809 171.48 52.5758 171.311 52.3837C171.119 52.1073 170.869 51.8825 170.581 51.7273C170.332 51.6131 170.044 51.5865 169.817 51.4476C169.14 51.0538 169.142 50.0263 168.743 49.3262C168.572 49.0368 168.329 48.8031 168.041 48.6508C167.753 48.4984 167.431 48.4332 167.111 48.4623C166.608 48.5156 166.152 48.7991 165.654 48.8942C164.972 49.0236 164.282 48.7858 163.636 48.5137C162.99 48.2416 162.336 47.9429 161.644 47.9429C160.951 47.9429 160.202 48.3235 159.99 49.0198C159.88 49.4004 159.935 49.8075 159.849 50.19C159.699 50.8692 159.133 51.3525 158.564 51.6892C158.172 51.9214 157.702 52.1877 157.655 52.6615C157.625 52.9621 157.78 53.2323 157.879 53.5234C158.046 54.0159 158.042 54.5558 157.868 55.0455C157.737 55.4051 157.519 55.721 157.387 56.0787C157.293 56.3214 157.248 56.5826 157.256 56.845C157.264 57.1074 157.325 57.365 157.433 57.6008C157.517 57.7727 157.632 57.9246 157.773 58.0473C157.913 58.17 158.076 58.2609 158.251 58.3143C158.604 58.4037 158.825 58.0327 159.201 58.1202Z" fill="#3F3D56"/>
<g opacity="0.1">
<path opacity="0.1" d="M160.447 56.893C160.354 57.3591 160.044 57.8881 159.599 57.831C159.461 57.8119 159.335 57.7377 159.199 57.7054C158.825 57.6179 158.604 57.9908 158.251 57.8957C158.076 57.8423 157.913 57.7515 157.772 57.6288C157.631 57.5061 157.515 57.3541 157.431 57.1822C157.338 56.9885 157.281 56.7771 157.265 56.56C157.229 56.8969 157.287 57.2375 157.431 57.5399C157.515 57.7118 157.631 57.8638 157.772 57.9865C157.913 58.1092 158.076 58.2 158.251 58.2534C158.609 58.3409 158.825 57.968 159.199 58.0631C159.33 58.1116 159.464 58.1528 159.599 58.1868C160.044 58.2458 160.354 57.7168 160.447 57.2507C160.52 56.8388 160.549 56.4194 160.533 56.0006C160.531 56.3003 160.502 56.5991 160.447 56.893V56.893Z" fill="black"/>
<path opacity="0.1" d="M157.995 54.0276C158.018 53.7158 157.978 53.4025 157.877 53.1086C157.796 52.9132 157.727 52.7124 157.671 52.5074C157.664 52.5393 157.658 52.5717 157.653 52.6044C157.623 52.9031 157.78 53.1752 157.877 53.4663C157.94 53.647 157.979 53.8358 157.995 54.0276V54.0276Z" fill="black"/>
<path opacity="0.1" d="M171.667 53.0249C171.583 53.5652 171.171 54.0733 171.13 54.6421C171.12 54.7395 171.12 54.8378 171.13 54.9352C171.22 54.2711 171.773 53.6832 171.667 53.0249Z" fill="black"/>
<path opacity="0.1" d="M171.697 57.0395C171.682 57.119 171.647 57.1927 171.595 57.2526C171.463 57.4029 171.237 57.4143 171.059 57.4885C170.624 57.6654 170.343 58.2248 169.87 58.2191C169.749 58.2118 169.633 58.1658 169.537 58.087C169.442 58.0082 169.371 57.9003 169.333 57.7777C169.323 57.8189 169.314 57.8609 169.308 57.9033C169.303 57.9866 169.314 58.0701 169.339 58.1491C169.365 58.228 169.405 58.3008 169.457 58.3633C169.509 58.4257 169.572 58.4766 169.643 58.5129C169.713 58.5492 169.79 58.5703 169.869 58.5749C170.336 58.5749 170.622 58.0212 171.057 57.8462C171.236 57.772 171.454 57.7606 171.594 57.6103C171.646 57.538 171.683 57.4545 171.702 57.3654C171.722 57.2764 171.722 57.184 171.705 57.0947C171.703 57.0718 171.699 57.0566 171.697 57.0395Z" fill="black"/>
<path opacity="0.1" d="M169.453 56.8816C169.409 56.5353 169.015 56.3945 168.807 56.1205C168.68 55.9405 168.611 55.7216 168.61 55.4964C168.596 55.8503 168.602 56.2118 168.807 56.4782C169.013 56.7446 169.326 56.8587 169.426 57.1327C169.452 57.0519 169.461 56.9663 169.453 56.8816V56.8816Z" fill="black"/>
<path opacity="0.1" d="M168.621 54.8895C168.636 54.4614 168.539 53.9382 168.161 53.7917C168.05 53.7479 167.927 53.7422 167.818 53.6946C167.521 53.5614 167.428 53.1695 167.231 52.8993C166.832 52.3571 166.043 52.3666 165.441 52.6253C165.173 52.7414 164.917 52.8955 164.638 52.983C164.501 53.0345 164.355 53.0551 164.21 53.0437C164.065 53.0322 163.923 52.9889 163.795 52.9164C163.677 52.8365 163.58 52.7262 163.46 52.6463C163.054 52.3875 162.524 52.6463 162.175 52.9792C161.826 53.3122 161.544 53.7574 161.102 53.9629C160.901 54.058 160.658 54.1151 160.554 54.3206C160.509 54.4326 160.49 54.5548 160.499 54.6764C160.499 54.7506 160.499 54.8248 160.499 54.899C160.501 54.8223 160.519 54.7471 160.551 54.6783C160.654 54.4728 160.898 54.4157 161.098 54.3206C161.531 54.1151 161.814 53.6775 162.172 53.3369C162.53 52.9964 163.05 52.7452 163.457 53.004C163.577 53.0801 163.673 53.1942 163.791 53.2722C163.92 53.3451 164.061 53.3887 164.206 53.4002C164.351 53.4116 164.497 53.3907 164.634 53.3388C164.908 53.2353 165.176 53.1165 165.438 52.983C166.037 52.7243 166.826 52.7129 167.227 53.2551C167.424 53.5253 167.517 53.9172 167.814 54.0504C167.923 54.0999 168.047 54.1056 168.158 54.1494C168.464 54.2711 168.585 54.6364 168.612 54.9979L168.621 54.8895Z" fill="black"/>
</g>
<g opacity="0.1">
<path opacity="0.1" d="M159.808 56.8816C159.818 56.5658 159.925 56.262 160.111 56.016C160.298 55.77 160.554 55.595 160.842 55.5174C161.64 55.31 162.477 55.3503 163.254 55.6334C164.953 56.2309 163.04 58.3808 163.04 58.3808C163.04 58.3808 161.767 59.7127 160.581 58.7823C160.231 58.5007 159.985 58.0963 159.888 57.6407C159.83 57.3925 159.803 57.1373 159.808 56.8816V56.8816Z" fill="black"/>
<path opacity="0.1" d="M169.144 56.8816C169.133 56.5655 169.027 56.2616 168.84 56.0155C168.653 55.7695 168.396 55.5947 168.108 55.5174C167.31 55.3103 166.474 55.3506 165.697 55.6334C163.999 56.2308 165.912 58.3808 165.912 58.3808C165.912 58.3808 167.182 59.7127 168.371 58.7823C168.721 58.5007 168.966 58.0963 169.063 57.6407C169.121 57.3925 169.148 57.1373 169.144 56.8816Z" fill="black"/>
<path opacity="0.1" d="M162.934 55.4584V55.5478H166.035V55.4413L162.934 55.4584Z" fill="black"/>
<path opacity="0.1" d="M163.924 56.4116H164.022V56.1091C164.022 56.1091 164.337 55.8484 164.86 56.1091V56.3792H165.039V56.2023H164.951C164.951 56.2023 164.987 55.8351 164.403 55.8941C164.403 55.8941 163.935 55.8465 163.945 56.1624H163.838L163.924 56.4116Z" fill="black"/>
</g>
<path d="M159.808 56.7579C159.818 56.4421 159.925 56.1384 160.111 55.8924C160.298 55.6464 160.554 55.4714 160.842 55.3937C161.64 55.1877 162.477 55.2279 163.255 55.5098C164.953 56.1091 163.04 58.2572 163.04 58.2572C163.04 58.2572 161.767 59.589 160.581 58.6586C160.23 58.3777 159.984 57.973 159.888 57.517C159.83 57.2689 159.803 57.0136 159.808 56.7579V56.7579Z" fill="#27D3A8"/>
<path d="M169.144 56.7579C169.133 56.4418 169.027 56.1379 168.84 55.8919C168.653 55.6458 168.396 55.471 168.108 55.3937C167.31 55.1876 166.474 55.2279 165.697 55.5097C163.999 56.1091 165.912 58.2572 165.912 58.2572C165.912 58.2572 167.182 59.589 168.371 58.6586C168.722 58.3777 168.967 57.973 169.063 57.517C169.122 57.2689 169.149 57.0136 169.144 56.7579Z" fill="#27D3A8"/>
<path d="M162.934 55.3385V55.4298H166.035V55.3214L162.934 55.3385Z" fill="#27D3A8"/>
<path d="M163.924 56.2917H164.022V55.9892C164.022 55.9892 164.337 55.7305 164.86 55.9892V56.2613H165.039V56.0824H164.951C164.951 56.0824 164.987 55.7171 164.403 55.7742C164.403 55.7742 163.935 55.7285 163.945 56.0425H163.838L163.924 56.2917Z" fill="#27D3A8"/>
<path d="M22.0359 86.9872H21.0195V111.322H22.0359V86.9872Z" fill="#535461"/>
<path d="M28.4245 111.248L28.36 112.344L28.2706 113.891L28.233 114.536L28.1435 116.084L28.1041 116.729L28.0147 118.276L26.9893 135.87C26.9455 136.627 26.6318 137.338 26.1121 137.858C25.5924 138.377 24.9058 138.667 24.1923 138.667H18.8631C18.1498 138.667 17.4635 138.377 16.944 137.858C16.4246 137.338 16.1112 136.627 16.0679 135.87L15.0372 118.276L14.9477 116.729L14.9101 116.084L14.8224 114.532L14.7849 113.887L14.6954 112.34L14.631 111.244C14.6187 111.034 14.6472 110.823 14.7145 110.625C14.7818 110.427 14.8866 110.245 15.0225 110.092C15.1583 109.938 15.3222 109.816 15.5042 109.732C15.6861 109.649 15.8823 109.606 16.0805 109.606H26.9767C27.1752 109.606 27.3716 109.649 27.5537 109.733C27.7358 109.816 27.8998 109.939 28.0356 110.093C28.1713 110.247 28.2758 110.429 28.3427 110.627C28.4096 110.826 28.4374 111.037 28.4245 111.248V111.248Z" fill="#3F3D56"/>
<path d="M28.36 112.344L28.2706 113.891H14.7831L14.6936 112.344H28.36Z" fill="#9D9CB5"/>
<path d="M28.233 114.536L28.1435 116.084H14.9119L14.8207 114.536H28.233Z" fill="#9D9CB5"/>
<path d="M28.1041 116.729L28.0147 118.276H15.0408L14.9495 116.729H28.1041Z" fill="#9D9CB5"/>
<path d="M13.1421 96.1085C19.0618 100.661 21.5277 107.785 21.5277 107.785C21.5277 107.785 14.393 107.524 8.46434 102.971C2.53572 98.4183 0.0787354 91.2948 0.0787354 91.2948C0.0787354 91.2948 7.22064 91.5554 13.1421 96.1085Z" fill="#27D3A8"/>
<path d="M0.0876846 91.2948C0.0876846 91.2948 7.49264 95.6708 9.86731 99.2859C12.242 102.901 21.5277 107.787 21.5277 107.787" stroke="#535461" stroke-width="2" stroke-miterlimit="10"/>
<path d="M16.9627 86.9434C20.1838 89.4168 21.5277 93.2982 21.5277 93.2982C21.5277 93.2982 17.6445 93.1574 14.4216 90.6783C11.1987 88.1991 9.85836 84.3235 9.85836 84.3235C9.85836 84.3235 13.7416 84.4547 16.9627 86.9434Z" fill="#27D3A8"/>
<path d="M9.85836 84.3139C9.85836 84.3139 13.8883 86.6922 15.1803 88.6615C16.4724 90.6307 21.5277 93.2887 21.5277 93.2887" stroke="#535461" stroke-width="2" stroke-miterlimit="10"/>
<path d="M26.2108 93.0928C22.5084 97.4175 21.7263 103.068 21.7263 103.068C21.7263 103.068 26.9445 101.708 30.6452 97.3832C34.3459 93.0585 35.1297 87.4057 35.1297 87.4057C35.1297 87.4057 29.9115 88.7661 26.2108 93.0928Z" fill="#27D3A8"/>
<path d="M35.1297 87.4057C35.1297 87.4057 30.3088 91.8389 29.083 94.8946C27.8572 97.9502 21.7263 103.076 21.7263 103.076" stroke="#535461" stroke-width="2" stroke-miterlimit="10"/>
</g>
<defs>
<linearGradient id="paint0_linear" x1="105.813" y1="122.926" x2="105.813" y2="20.501" gradientUnits="userSpaceOnUse">
<stop stop-color="#808080" stop-opacity="0.25"/>
<stop offset="0.54" stop-color="#808080" stop-opacity="0.12"/>
<stop offset="1" stop-color="#808080" stop-opacity="0.1"/>
</linearGradient>
<linearGradient id="paint1_linear" x1="32932.8" y1="91980.2" x2="32932.8" y2="31165" gradientUnits="userSpaceOnUse">
<stop stop-color="#808080" stop-opacity="0.25"/>
<stop offset="0.54" stop-color="#808080" stop-opacity="0.12"/>
<stop offset="1" stop-color="#808080" stop-opacity="0.1"/>
</linearGradient>
<clipPath id="clip0">
<rect width="205" height="156" fill="white"/>
</clipPath>
</defs>
</svg>
