<svg width="43" height="55" viewBox="0 0 43 55" fill="none" xmlns="http://www.w3.org/2000/svg">
<path d="M42.9083 34.4336C42.9161 49.5934 33.3768 54.8903 21.6072 54.8957C21.3338 54.8958 21.0617 54.8931 20.791 54.8875C20.2455 54.8766 19.7057 54.8534 19.1716 54.8178C8.54878 54.1123 0.29229 48.5518 0.285042 34.4532C0.277539 19.8629 20.0114 1.44121 21.4914 0.0791024C21.4927 0.0791024 21.4927 0.0791022 21.494 0.0778643C21.5502 0.0259516 21.579 0 21.579 0C21.579 0 42.9005 19.2751 42.9083 34.4336Z" fill="#27D3A8"/>
<path d="M20.8303 52.5774L28.6196 42.2877L20.8113 53.7066L20.791 54.8876C20.2455 54.8768 19.7057 54.8535 19.1716 54.8179L20.0036 39.6516L19.997 39.5342L20.0113 39.512L20.0904 38.0789L12.2507 26.6388L20.1134 37.0053L20.1332 37.3092L20.7617 25.8504L14.0493 14.0281L20.843 23.8366L21.4914 0.0792762L21.4939 0.000213623L21.494 0.0780381L21.3937 18.8132L28.0648 11.3828L21.3658 20.4266L21.1945 30.6869L27.4248 20.8377L21.1704 32.1953L21.0752 37.9005L30.1171 24.1907L21.0409 39.8908L20.8303 52.5774Z" fill="#3F3D56"/>
</svg>
