<svg width="66" height="70" viewBox="0 0 66 70" fill="none" xmlns="http://www.w3.org/2000/svg">
<path d="M32.9143 69.5067C31.8393 69.5031 30.7689 69.3644 29.7283 69.0938L29.5232 69.037L29.333 68.9415C22.4546 65.4866 16.6517 60.9231 12.0854 55.3779C8.30545 50.7606 5.35844 45.5182 3.37688 39.8864C1.00723 33.1437 -0.132798 26.0291 0.0112067 18.8822C0.0141124 18.7322 0.0165716 18.6164 0.0165716 18.5366C0.0165716 15.0624 1.94153 12.0141 4.92063 10.7706C7.20069 9.81882 27.9025 1.30048 29.3982 0.685002C32.2152 -0.728991 35.2203 0.451208 35.7012 0.657593C36.7799 1.09942 55.9175 8.94098 60.0531 10.9138C64.3152 12.947 65.4524 16.5997 65.4524 18.4374C65.4524 26.7573 64.0141 34.5329 61.1774 41.5482C58.8864 47.2266 55.6394 52.4689 51.5778 57.0467C43.7414 65.8812 35.903 69.0131 35.8273 69.0407C34.8905 69.3636 33.9049 69.5213 32.9143 69.5067ZM31.071 64.9324C31.7505 65.085 33.3151 65.314 34.3349 64.9413C35.6304 64.468 42.1911 61.0598 48.3218 54.1482C56.7924 44.5987 61.0904 32.5942 61.0966 18.4681C61.0815 18.1819 60.8786 16.1407 58.1804 14.8536C54.125 12.9189 34.2331 4.77057 34.0327 4.68844L33.9777 4.6651C33.5608 4.4901 32.2342 4.12149 31.3197 4.60158L31.1366 4.68709C30.9148 4.77832 8.93963 13.8202 6.59596 14.7985C4.9565 15.4828 4.37236 17.1782 4.37236 18.5366C4.37236 18.6358 4.3698 18.7802 4.36618 18.9669C4.17887 28.6325 6.41153 52.4165 31.071 64.9324Z" fill="#3F3D56"/>
<path d="M30.3092 2.66885C30.3092 2.66885 8.13425 11.7928 5.75836 12.7845C3.38247 13.7763 2.19453 16.1564 2.19453 18.5366C2.19453 20.9167 0.41262 51.9746 30.3092 66.991C30.3092 66.991 33.0226 67.7432 35.0812 66.991C37.1399 66.2389 63.2746 53.5447 63.2746 18.4374C63.2746 18.4374 63.2746 14.8672 59.1168 12.8837C54.959 10.9002 34.8567 2.66885 34.8567 2.66885C34.8567 2.66885 32.3881 1.57795 30.3092 2.66885Z" fill="#27D3A8"/>
<path opacity="0.1" d="M32.6851 9.80933V58.4823C32.6851 58.4823 10.3121 47.6935 10.5101 19.33L32.6851 9.80933Z" fill="black"/>
<path d="M32.9768 44.7913L25.8499 35.6111L29.9945 32.3819L33.3691 36.7284L44.769 24.6726L48.5811 28.2909L32.9768 44.7913Z" fill="white"/>
</svg>
