<svg width="49" height="49" viewBox="0 0 49 49" fill="none" xmlns="http://www.w3.org/2000/svg">
<g clip-path="url(#clip0)">
<path d="M31.6647 38.3591C24.2012 46.0956 16.8047 44.1742 10.8953 38.4729C10.758 38.3404 10.6228 38.2072 10.4897 38.0731C10.2213 37.8032 9.96181 37.5297 9.7113 37.2527C4.72759 31.7446 3.32292 24.9068 10.2639 17.7119C17.447 10.2661 36.4248 10.4336 37.8385 10.456C37.8391 10.4567 37.8391 10.4567 37.8404 10.4567C37.8942 10.4574 37.9214 10.4582 37.9214 10.4582C37.9214 10.4582 39.1275 30.6233 31.6647 38.3591Z" fill="#27D3A8"/>
<path d="M11.6473 36.9138L20.6249 35.4403L11.0816 37.4806L10.4896 38.0732C10.2212 37.8033 9.96176 37.5298 9.71125 37.2528L17.5994 29.92L17.6539 29.8569L17.672 29.8525L18.4176 29.1599L20.1182 19.5251L18.958 28.6234L18.8182 28.788L24.778 23.2478L27.2326 13.9643L25.8107 22.26L37.8384 10.4561L37.8786 10.417L37.8403 10.4568L28.5615 19.9645L35.5695 19.4076L27.7528 20.774L22.6128 25.9245L30.5911 23.9201L21.8577 26.6822L18.9997 29.5462L30.2906 26.9352L18.0021 30.5448L11.6473 36.9138Z" fill="#3F3D56"/>
</g>
<g clip-path="url(#clip1)">
<path d="M15.7466 26.6036C22.4826 26.6036 27.9432 21.0959 27.9432 14.3018C27.9432 7.50772 22.4826 2 15.7466 2C9.01063 2 3.55002 7.50772 3.55002 14.3018C3.55002 21.0959 9.01063 26.6036 15.7466 26.6036Z" fill="#1F7396"/>
<path d="M20.7995 19.6619L10.6937 19.6619C10.5089 19.6617 10.3318 19.5876 10.2011 19.4558C10.0704 19.324 9.997 19.1453 9.99681 18.9589L9.99681 12.808C9.997 12.6217 10.0705 12.443 10.2011 12.3112C10.3318 12.1794 10.5089 12.1053 10.6937 12.1051L20.7995 12.1051C20.9843 12.1053 21.1614 12.1794 21.2921 12.3112C21.4228 12.443 21.4962 12.6217 21.4964 12.808L21.4964 18.9589C21.4962 19.1453 21.4228 19.324 21.2921 19.4558C21.1614 19.5876 20.9843 19.6617 20.7995 19.6619ZM10.6937 12.808L10.6937 18.9589L20.8 18.9589L20.7995 12.808L10.6937 12.808Z" fill="white"/>
<path d="M18.8829 12.808L12.6104 12.808L12.6104 9.99618C12.6104 7.95956 13.9294 6.48135 15.7466 6.48135C17.5639 6.48135 18.8829 7.95956 18.8829 9.99618L18.8829 12.808ZM13.3073 12.1051L18.1859 12.1051L18.1859 9.99618C18.1859 8.34061 17.1829 7.18434 15.7466 7.18434C14.3104 7.18434 13.3073 8.34065 13.3073 9.99618L13.3073 12.1051Z" fill="white"/>
</g>
<defs>
<clipPath id="clip0">
<rect width="30" height="39" fill="white" transform="translate(27.0917) rotate(44)"/>
</clipPath>
<clipPath id="clip1">
<rect width="25" height="25" fill="white" transform="translate(3 2)"/>
</clipPath>
</defs>
</svg>
